<?xml version="1.0" encoding="iso-8859-1"?>
<!-- Generator: Adobe Illustrator 19.0.0, SVG Export Plug-In . SVG Version: 6.00 Build 0)  -->
<svg version="1.1" id="Layer_1" xmlns="http://www.w3.org/2000/svg" xmlns:xlink="http://www.w3.org/1999/xlink" x="0px" y="0px"
	 viewBox="0 0 473.654 473.654" style="enable-background:new 0 0 473.654 473.654;" xml:space="preserve">
<circle style="fill:#E84849;" cx="236.827" cy="236.827" r="236.827"/>
<path style="fill:#CFC7BE;" d="M361.179,213.769c0-68.883-54.729-131.513-122.232-131.513c-67.511,0-122.232,62.63-122.232,131.513
	h31.633c0-51.053,40.567-99.23,90.599-99.23c50.039,0,90.599,48.177,90.599,99.23H361.179z"/>
<path style="fill:#F4E028;" d="M361.247,367.944c0,14.439-11.948,26.14-26.704,26.14H143.158c-14.753,0-26.704-11.701-26.704-26.14
	V213.309c0-14.431,244.789-14.431,244.789,0v154.635H361.247z"/>
<path style="fill:#DAC425;" d="M267.148,275.962c0-15.067-12.213-27.28-27.28-27.28s-27.28,12.213-27.28,27.28
	c0,11.495,7.113,21.304,17.165,25.324v25.164c0,5.333,4.33,9.656,9.663,9.656c5.34,0,9.663-4.323,9.663-9.656v-24.835
	C259.605,297.835,267.148,287.794,267.148,275.962z"/>
<path style="fill:#D0B82B;" d="M211.566,275.962c0-15.067,12.221-27.28,27.288-27.28c0,0-19.019,12.681-19.019,27.748
	c0,15.347,14.352,24.442,14.352,24.442v25.855c0,5.34,5.112,9.379,5.112,9.379c-5.333,0-9.663-4.323-9.663-9.656v-24.835
	C219.113,297.835,211.566,287.794,211.566,275.962z"/>
<polygon style="fill:#F8E349;" points="316.719,394.084 282.618,394.084 282.618,203.111 316.719,204.816 "/>
<path style="fill:#E8E7E7;" d="M282.618,91.388v36.207c14.076,8.93,25.855,21.85,34.101,36.943v-51.015
	C306.596,104.289,295.086,96.758,282.618,91.388z"/>
<g>
</g>
<g>
</g>
<g>
</g>
<g>
</g>
<g>
</g>
<g>
</g>
<g>
</g>
<g>
</g>
<g>
</g>
<g>
</g>
<g>
</g>
<g>
</g>
<g>
</g>
<g>
</g>
<g>
</g>
</svg>
